<svg width="150" height="150" viewBox="0 0 150 150" fill="none" xmlns="http://www.w3.org/2000/svg">
<g clip-path="url(#clip0_65_5)">
<path d="M42.5099 49.9049C41.5724 49.9949 40.4774 49.8224 39.6974 49.9199C15.1649 52.9349 16.8524 87.5774 41.6249 87.7799C62.8749 87.9449 84.1249 87.9474 105.375 87.7874C119.79 87.6749 131.325 73.6349 127.335 59.4224C124.89 50.7324 119.285 45.2174 110.52 42.8774C109.612 42.6374 108.337 42.5099 107.257 42.2549C107.002 42.1949 106.825 42.0474 106.725 41.8124C101.407 29.7374 90.7574 22.0349 77.6849 21.1799C73.6349 20.9149 69.8624 21.3549 66.3674 22.4999C53.4774 26.7149 45.6749 35.7124 42.9599 49.4924C42.9149 49.7424 42.7649 49.8799 42.5099 49.9049Z" stroke="#98D0E7" stroke-width="2"/>
<path d="M41.31 102.937C41.31 102.351 41.0769 101.788 40.662 101.373C40.2471 100.958 39.6843 100.725 39.0975 100.725C38.5107 100.725 37.948 100.958 37.533 101.373C37.1181 101.788 36.885 102.351 36.885 102.937C36.885 103.524 37.1181 104.087 37.533 104.502C37.948 104.917 38.5107 105.15 39.0975 105.15C39.6843 105.15 40.2471 104.917 40.662 104.502C41.0769 104.087 41.31 103.524 41.31 102.937Z" stroke="#98D0E7" stroke-width="2"/>
<path d="M97.9499 102.93C97.9499 102.343 97.7168 101.78 97.3019 101.366C96.887 100.951 96.3242 100.718 95.7374 100.718C95.1506 100.718 94.5879 100.951 94.1729 101.366C93.758 101.78 93.5249 102.343 93.5249 102.93C93.5249 103.517 93.758 104.08 94.1729 104.495C94.5879 104.909 95.1506 105.143 95.7374 105.143C96.3242 105.143 96.887 104.909 97.3019 104.495C97.7168 104.08 97.9499 103.517 97.9499 102.93Z" stroke="#98D0E7" stroke-width="2"/>
<path d="M105.127 110.175L106.89 110.04C107.47 110 107.745 109.69 107.715 109.11L107.692 108.742C107.684 108.576 107.615 108.418 107.499 108.299C107.382 108.18 107.227 108.108 107.062 108.097L105.172 107.977C104.912 107.962 104.762 107.827 104.722 107.572C104.532 106.462 104.587 105.367 104.887 104.287C104.925 104.161 104.99 104.045 105.079 103.947C105.167 103.85 105.276 103.774 105.397 103.725C106.372 103.342 108.225 103.2 107.775 101.655C107.46 100.56 105.885 100.522 105 100.725C102.067 101.415 100.897 104.107 101.265 106.912C101.296 107.151 101.244 107.392 101.116 107.595C100.989 107.798 100.794 107.949 100.567 108.022C99.8373 108.262 99.5298 108.755 99.6448 109.5C99.6948 109.835 99.8898 110.017 100.23 110.047C100.49 110.072 100.735 110.152 100.965 110.287C101.17 110.407 101.272 110.587 101.272 110.827L101.25 120.165C101.248 120.514 101.381 120.851 101.621 121.104C101.862 121.357 102.191 121.507 102.54 121.522L102.975 121.537C104.08 121.587 104.632 121.062 104.632 119.962L104.647 110.685C104.647 110.555 104.697 110.429 104.786 110.334C104.875 110.24 104.997 110.183 105.127 110.175Z" stroke="#98D0E7" stroke-width="2"/>
<path d="M91.7851 102.618C91.7854 102.416 91.746 102.216 91.669 102.029C91.5921 101.843 91.4791 101.673 91.3366 101.53C91.1941 101.387 91.0248 101.273 90.8384 101.196C90.652 101.118 90.4521 101.078 90.2502 101.078L89.9652 101.077C89.5574 101.076 89.1661 101.238 88.8773 101.526C88.5885 101.813 88.4258 102.204 88.4251 102.612L88.3948 119.937C88.3944 120.139 88.4339 120.339 88.5108 120.526C88.5878 120.712 88.7007 120.882 88.8432 121.025C88.9858 121.168 89.1551 121.281 89.3415 121.359C89.5279 121.437 89.7277 121.477 89.9297 121.477L90.2147 121.478C90.6224 121.478 91.0137 121.317 91.3026 121.029C91.5914 120.741 91.7541 120.351 91.7548 119.943L91.7851 102.618Z" stroke="#98D0E7" stroke-width="2"/>
<path d="M54.9299 110.468C52.6649 107.808 50.0124 107.03 46.9724 108.135C41.8874 109.973 42.4124 114.983 42.4424 119.828C42.4474 120.938 43.0049 121.498 44.1149 121.508H44.4449C44.6209 121.51 44.7955 121.477 44.9587 121.411C45.1219 121.345 45.2705 121.248 45.396 121.125C45.5214 121.001 45.6213 120.854 45.6897 120.692C45.7582 120.53 45.7939 120.356 45.7949 120.18L45.8624 114.03C45.8663 113.571 45.9608 113.117 46.1405 112.695C46.3201 112.272 46.5814 111.889 46.9094 111.567C47.2375 111.246 47.6258 110.992 48.0522 110.82C48.4787 110.648 48.935 110.561 49.3949 110.565L50.5799 110.573C51.3115 110.578 52.0117 110.871 52.5304 111.389C53.0492 111.906 53.3451 112.607 53.3549 113.34L53.4449 120.173C53.4483 120.52 53.584 120.853 53.8239 121.102C54.0639 121.352 54.3899 121.5 54.7349 121.515L55.0574 121.523C56.1974 121.573 56.7749 121.028 56.7899 119.888C56.8199 116.91 55.7624 110.895 60.1949 110.445C65.4749 109.905 64.3274 116.828 64.3424 119.865C64.3474 120.97 64.8999 121.515 65.9999 121.5H66.3974C66.7305 121.496 67.0493 121.365 67.2869 121.133C67.5246 120.901 67.6627 120.586 67.6724 120.255C67.8224 115.86 68.3474 111.63 65.3324 109.208C62.1974 106.695 57.9374 107.205 55.4474 110.46C55.2774 110.675 55.1049 110.678 54.9299 110.468Z" stroke="#98D0E7" stroke-width="2"/>
<path d="M72.8249 120.585C72.8236 120.55 72.8319 120.516 72.8488 120.486C72.8657 120.456 72.8907 120.431 72.9213 120.413C72.9518 120.395 72.9867 120.386 73.0225 120.386C73.0583 120.386 73.0936 120.395 73.1249 120.412C77.1824 122.865 83.3924 122.362 85.8149 117.81C91.4999 107.145 69.2999 102.555 69.4949 115.867C69.5449 119.447 69.5474 123.087 69.5024 126.787C69.4874 127.867 70.0224 128.43 71.1074 128.475L71.4299 128.49C71.6138 128.498 71.7975 128.469 71.9697 128.404C72.1419 128.34 72.2991 128.241 72.4317 128.114C72.5643 127.987 72.6695 127.834 72.741 127.666C72.8125 127.497 72.8487 127.316 72.8474 127.132L72.8249 120.585Z" stroke="#98D0E7" stroke-width="2"/>
<path d="M27.4425 117.87C26.655 118.657 23.9025 119.46 24.6975 120.945C24.8623 121.258 25.1208 121.511 25.4368 121.67C25.7529 121.829 26.1107 121.885 26.46 121.83C30.49 121.205 32.2475 118.92 31.7325 114.975C31.3125 111.795 32.445 111.622 34.7475 110.152C34.9618 110.016 35.1296 109.818 35.2288 109.585C35.3279 109.352 35.3536 109.095 35.3025 108.847C35.1475 108.087 34.6275 107.752 33.7425 107.842C30.9175 108.117 29.1025 109.51 28.2975 112.02C27.6375 114.082 29.2725 116.07 27.4425 117.87Z" stroke="#98D0E7" stroke-width="2"/>
<path d="M97.4038 109.66C97.4041 109.448 97.3626 109.237 97.2815 109.04C97.2005 108.843 97.0815 108.665 96.9313 108.514C96.7811 108.363 96.6027 108.244 96.4063 108.162C96.2099 108.08 95.9994 108.038 95.7866 108.038L95.6966 108.037C95.4839 108.037 95.2731 108.079 95.0764 108.16C94.8798 108.241 94.701 108.36 94.5503 108.51C94.3996 108.66 94.2799 108.838 94.1982 109.035C94.1164 109.231 94.0741 109.442 94.0738 109.655L94.0559 119.885C94.0555 120.097 94.0971 120.308 94.1781 120.505C94.2592 120.701 94.3782 120.88 94.5284 121.031C94.6786 121.182 94.8569 121.301 95.0533 121.383C95.2497 121.465 95.4603 121.507 95.6731 121.507L95.7631 121.508C95.9758 121.508 96.1865 121.466 96.3832 121.385C96.5799 121.304 96.7587 121.185 96.9094 121.035C97.0601 120.885 97.1797 120.706 97.2615 120.51C97.3433 120.314 97.3855 120.103 97.3859 119.89L97.4038 109.66Z" stroke="#98D0E7" stroke-width="2"/>
<path d="M121.897 122.85C121.78 123.511 121.478 124.125 121.027 124.62C119.832 125.93 118.252 126.312 116.287 125.767C115.072 125.43 114.502 124.642 113.46 123.9C112.69 123.35 112.085 123.492 111.645 124.327L111.502 124.605C111.032 125.495 111.207 126.23 112.027 126.81C117.772 130.875 125.19 128.88 125.265 121.147C125.3 117.137 125.305 113.15 125.28 109.185C125.279 109.036 125.248 108.889 125.189 108.753C125.13 108.616 125.044 108.493 124.936 108.391C124.828 108.289 124.701 108.209 124.561 108.158C124.422 108.106 124.274 108.083 124.125 108.09L123.81 108.097C122.765 108.142 122.21 108.685 122.145 109.725C121.995 111.997 122.34 115.807 121.102 117.472C119.512 119.61 115.665 119.445 114.15 117.285C112.882 115.492 113.332 111.742 113.347 109.447C113.352 109.108 113.23 108.779 113.005 108.524C112.781 108.269 112.47 108.106 112.132 108.067L111.847 108.037C110.712 107.912 110.105 108.42 110.025 109.56C109.82 112.44 109.872 114.672 110.182 116.257C111.112 121.035 116.827 123.247 121.065 120.915C121.935 120.435 122.282 120.682 122.107 121.657L121.897 122.85Z" stroke="#98D0E7" stroke-width="2"/>
<path d="M40.7431 109.588C40.7444 109.21 40.5955 108.847 40.3292 108.579C40.063 108.311 39.701 108.16 39.3231 108.158L38.8881 108.157C38.701 108.156 38.5155 108.192 38.3424 108.263C38.1692 108.334 38.0118 108.439 37.879 108.571C37.7462 108.702 37.6407 108.859 37.5685 109.032C37.4962 109.204 37.4587 109.39 37.4581 109.577L37.4216 120.032C37.4203 120.41 37.5692 120.773 37.8355 121.041C38.1018 121.309 38.4637 121.46 38.8416 121.462L39.2766 121.463C39.4638 121.464 39.6492 121.428 39.8223 121.357C39.9955 121.286 40.153 121.181 40.2857 121.049C40.4185 120.918 40.5241 120.761 40.5963 120.588C40.6685 120.416 40.706 120.23 40.7066 120.043L40.7431 109.588Z" stroke="#98D0E7" stroke-width="2"/>
<path d="M94.2748 55.3574C83.4598 45.0374 66.6973 45.0375 55.8748 55.3125C55.4948 55.6725 55.4948 56.03 55.8748 56.385L57.5473 57.9675C57.6955 58.1074 57.8918 58.1853 58.0966 58.1853C58.3013 58.1853 58.4991 58.1074 58.6498 57.9675C67.8898 49.3125 82.3723 49.275 91.4998 58.0575C91.6431 58.1945 91.8334 58.271 92.0307 58.271C92.228 58.271 92.4168 58.1945 92.5573 58.0575L94.2823 56.3625C94.3495 56.2969 94.4027 56.2184 94.4387 56.1318C94.4748 56.0452 94.4931 55.9522 94.4924 55.8584C94.4917 55.7645 94.472 55.6718 94.4347 55.5857C94.3973 55.4997 94.3429 55.422 94.2748 55.3574Z" stroke="#98D0E7" stroke-width="2"/>
<path d="M64.1999 63.4574C70.2974 57.9899 79.9049 57.8099 85.9649 63.4799C86.3299 63.8249 86.6899 63.8199 87.0449 63.4649L88.7624 61.7549C89.1124 61.4099 89.1024 61.0724 88.7324 60.7424C80.6399 53.5799 69.6824 53.5874 61.3949 60.7049C60.9649 61.0699 60.9499 61.4524 61.3499 61.8524L62.9324 63.4274C63.3424 63.8324 63.7649 63.8424 64.1999 63.4574Z" stroke="#98D0E7" stroke-width="2"/>
<path d="M69.9898 69.2099C73.0948 66.7499 77.3548 66.9449 80.2048 69.3149C80.5748 69.6199 80.9273 69.5999 81.2623 69.2549L83.0098 67.4549C83.073 67.3905 83.1218 67.3133 83.153 67.2286C83.1842 67.1439 83.197 67.0535 83.1906 66.9634C83.1842 66.8734 83.1588 66.7857 83.116 66.7063C83.0732 66.6268 83.014 66.5573 82.9423 66.5024C77.7673 62.5924 72.5648 62.5549 67.3348 66.3899C66.7798 66.7999 66.7498 67.2474 67.2448 67.7324L68.6773 69.1424C69.0923 69.5524 69.5298 69.5749 69.9898 69.2099Z" stroke="#98D0E7" stroke-width="2"/>
<path d="M78.3449 75.39C78.3449 74.5187 77.9988 73.6832 77.3827 73.0671C76.7667 72.4511 75.9311 72.105 75.0599 72.105C74.1887 72.105 73.3531 72.4511 72.7371 73.0671C72.121 73.6832 71.7749 74.5187 71.7749 75.39C71.7749 76.2612 72.121 77.0968 72.7371 77.7128C73.3531 78.3289 74.1887 78.675 75.0599 78.675C75.9311 78.675 76.7667 78.3289 77.3827 77.7128C77.9988 77.0968 78.3449 76.2612 78.3449 75.39Z" stroke="#98D0E7" stroke-width="2"/>
<path d="M83.2839 114.575C83.2418 113.426 82.6542 112.344 81.6503 111.567C80.6465 110.79 79.3086 110.382 77.9311 110.433C76.5536 110.483 75.2492 110.988 74.305 111.836C73.3607 112.685 72.8539 113.806 72.896 114.955C72.9381 116.104 73.5257 117.186 74.5296 117.963C75.5334 118.74 76.8713 119.148 78.2488 119.097C79.6263 119.047 80.9307 118.542 81.875 117.694C82.8192 116.845 83.3261 115.723 83.2839 114.575Z" stroke="#98D0E7" stroke-width="2"/>
<path d="M0 0H150V150H0V0ZM42.51 49.905C41.5725 49.995 40.4775 49.8225 39.6975 49.92C15.165 52.935 16.8525 87.5775 41.625 87.78C62.875 87.945 84.125 87.9475 105.375 87.7875C119.79 87.675 131.325 73.635 127.335 59.4225C124.89 50.7325 119.285 45.2175 110.52 42.8775C109.613 42.6375 108.337 42.51 107.257 42.255C107.002 42.195 106.825 42.0475 106.725 41.8125C101.408 29.7375 90.7575 22.035 77.685 21.18C73.635 20.915 69.8625 21.355 66.3675 22.5C53.4775 26.715 45.675 35.7125 42.96 49.4925C42.915 49.7425 42.765 49.88 42.51 49.905ZM41.31 102.938C41.31 102.351 41.0769 101.788 40.662 101.373C40.247 100.958 39.6843 100.725 39.0975 100.725C38.5107 100.725 37.948 100.958 37.533 101.373C37.1181 101.788 36.885 102.351 36.885 102.938C36.885 103.524 37.1181 104.087 37.533 104.502C37.948 104.917 38.5107 105.15 39.0975 105.15C39.6843 105.15 40.247 104.917 40.662 104.502C41.0769 104.087 41.31 103.524 41.31 102.938ZM97.95 102.93C97.95 102.343 97.7169 101.78 97.302 101.366C96.887 100.951 96.3243 100.717 95.7375 100.717C95.1507 100.717 94.5879 100.951 94.173 101.366C93.7581 101.78 93.525 102.343 93.525 102.93C93.525 103.517 93.7581 104.08 94.173 104.494C94.5879 104.909 95.1507 105.143 95.7375 105.143C96.3243 105.143 96.887 104.909 97.302 104.494C97.7169 104.08 97.95 103.517 97.95 102.93ZM105.127 110.175L106.89 110.04C107.47 110 107.745 109.69 107.715 109.11L107.692 108.743C107.684 108.576 107.615 108.418 107.499 108.299C107.383 108.18 107.227 108.108 107.062 108.098L105.172 107.978C104.912 107.963 104.763 107.827 104.723 107.572C104.533 106.462 104.588 105.368 104.888 104.288C104.925 104.161 104.99 104.045 105.079 103.947C105.167 103.85 105.276 103.774 105.397 103.725C106.372 103.343 108.225 103.2 107.775 101.655C107.46 100.56 105.885 100.523 105 100.725C102.067 101.415 100.898 104.108 101.265 106.913C101.296 107.151 101.244 107.392 101.116 107.595C100.989 107.798 100.795 107.949 100.567 108.022C99.8375 108.262 99.53 108.755 99.645 109.5C99.695 109.835 99.89 110.017 100.23 110.047C100.49 110.072 100.735 110.153 100.965 110.288C101.17 110.408 101.272 110.588 101.272 110.828L101.25 120.165C101.248 120.514 101.381 120.851 101.621 121.104C101.862 121.357 102.191 121.507 102.54 121.522L102.975 121.538C104.08 121.588 104.632 121.062 104.632 119.962L104.647 110.685C104.647 110.555 104.697 110.429 104.786 110.335C104.875 110.24 104.998 110.183 105.127 110.175ZM91.7852 102.618C91.7855 102.416 91.7461 102.216 91.6691 102.029C91.5922 101.843 91.4792 101.673 91.3367 101.53C91.1942 101.387 91.0249 101.273 90.8385 101.196C90.652 101.118 90.4522 101.078 90.2503 101.078L89.9653 101.077C89.5575 101.077 89.1662 101.238 88.8774 101.526C88.5885 101.814 88.4259 102.204 88.4251 102.612L88.3949 119.937C88.3945 120.139 88.4339 120.339 88.5109 120.526C88.5878 120.712 88.7008 120.882 88.8433 121.025C88.9858 121.168 89.1551 121.282 89.3415 121.359C89.528 121.437 89.7278 121.477 89.9297 121.477L90.2147 121.478C90.6225 121.478 91.0138 121.317 91.3026 121.029C91.5915 120.741 91.7541 120.351 91.7548 119.943L91.7852 102.618ZM54.93 110.467C52.665 107.807 50.0125 107.03 46.9725 108.135C41.8875 109.972 42.4125 114.983 42.4425 119.828C42.4475 120.938 43.005 121.497 44.115 121.507H44.445C44.6209 121.509 44.7955 121.477 44.9588 121.411C45.122 121.345 45.2706 121.248 45.396 121.124C45.5215 121.001 45.6213 120.854 45.6898 120.692C45.7583 120.53 45.794 120.356 45.795 120.18L45.8625 114.03C45.8664 113.571 45.9609 113.117 46.1405 112.695C46.3202 112.272 46.5815 111.889 46.9095 111.567C47.2375 111.246 47.6259 110.991 48.0523 110.82C48.4788 110.648 48.935 110.561 49.395 110.565L50.58 110.572C51.3116 110.578 52.0118 110.871 52.5305 111.389C53.0493 111.906 53.3452 112.606 53.355 113.34L53.445 120.172C53.4484 120.52 53.584 120.852 53.824 121.102C54.064 121.352 54.39 121.5 54.735 121.515L55.0575 121.522C56.1975 121.572 56.775 121.028 56.79 119.888C56.82 116.91 55.7625 110.895 60.195 110.445C65.475 109.905 64.3275 116.828 64.3425 119.865C64.3475 120.97 64.9 121.515 66 121.5H66.3975C66.7306 121.496 67.0494 121.365 67.287 121.133C67.5247 120.901 67.6628 120.586 67.6725 120.255C67.8225 115.86 68.3475 111.63 65.3325 109.208C62.1975 106.695 57.9375 107.205 55.4475 110.46C55.2775 110.675 55.105 110.677 54.93 110.467ZM72.825 120.585C72.8237 120.55 72.832 120.516 72.8489 120.486C72.8658 120.456 72.8908 120.431 72.9213 120.413C72.9518 120.396 72.9868 120.386 73.0226 120.386C73.0584 120.386 73.0937 120.395 73.125 120.413C77.1825 122.865 83.3925 122.363 85.815 117.81C91.5 107.145 69.3 102.555 69.495 115.868C69.545 119.448 69.5475 123.088 69.5025 126.788C69.4875 127.868 70.0225 128.43 71.1075 128.475L71.43 128.49C71.6139 128.498 71.7976 128.469 71.9698 128.404C72.142 128.34 72.2992 128.241 72.4318 128.114C72.5644 127.987 72.6696 127.834 72.7411 127.666C72.8125 127.497 72.8487 127.316 72.8475 127.132L72.825 120.585ZM27.4425 117.87C26.655 118.658 23.9025 119.46 24.6975 120.945C24.8622 121.258 25.1207 121.512 25.4368 121.67C25.7528 121.829 26.1106 121.885 26.46 121.83C30.49 121.205 32.2475 118.92 31.7325 114.975C31.3125 111.795 32.445 111.622 34.7475 110.152C34.9618 110.016 35.1296 109.818 35.2287 109.585C35.3279 109.352 35.3536 109.095 35.3025 108.848C35.1475 108.088 34.6275 107.752 33.7425 107.842C30.9175 108.117 29.1025 109.51 28.2975 112.02C27.6375 114.083 29.2725 116.07 27.4425 117.87ZM97.4039 109.66C97.4043 109.448 97.3628 109.237 97.2817 109.04C97.2006 108.844 97.0816 108.665 96.9315 108.514C96.7813 108.363 96.6029 108.244 96.4065 108.162C96.2101 108.08 95.9995 108.038 95.7868 108.038L95.6968 108.037C95.484 108.037 95.2733 108.079 95.0766 108.16C94.8799 108.241 94.7011 108.36 94.5504 108.51C94.3997 108.66 94.2801 108.838 94.1983 109.035C94.1166 109.231 94.0743 109.442 94.0739 109.655L94.0561 119.885C94.0557 120.097 94.0972 120.308 94.1783 120.505C94.2594 120.701 94.3784 120.88 94.5285 121.031C94.6787 121.182 94.8571 121.301 95.0535 121.383C95.2499 121.465 95.4605 121.507 95.6732 121.507L95.7632 121.508C95.976 121.508 96.1867 121.466 96.3834 121.385C96.5801 121.304 96.7589 121.185 96.9096 121.035C97.0603 120.885 97.1799 120.707 97.2617 120.51C97.3434 120.314 97.3857 120.103 97.3861 119.89L97.4039 109.66ZM121.897 122.85C121.78 123.511 121.478 124.125 121.027 124.62C119.832 125.93 118.253 126.313 116.288 125.768C115.073 125.43 114.502 124.642 113.46 123.9C112.69 123.35 112.085 123.493 111.645 124.328L111.502 124.605C111.032 125.495 111.207 126.23 112.027 126.81C117.772 130.875 125.19 128.88 125.265 121.147C125.3 117.137 125.305 113.15 125.28 109.185C125.279 109.036 125.248 108.889 125.189 108.753C125.13 108.617 125.044 108.493 124.936 108.391C124.828 108.289 124.701 108.209 124.561 108.158C124.422 108.106 124.274 108.083 124.125 108.09L123.81 108.098C122.765 108.143 122.21 108.685 122.145 109.725C121.995 111.998 122.34 115.808 121.103 117.473C119.513 119.61 115.665 119.445 114.15 117.285C112.882 115.493 113.333 111.742 113.348 109.447C113.352 109.108 113.23 108.779 113.005 108.524C112.781 108.269 112.47 108.106 112.132 108.067L111.848 108.038C110.713 107.913 110.105 108.42 110.025 109.56C109.82 112.44 109.873 114.672 110.183 116.257C111.113 121.035 116.827 123.248 121.065 120.915C121.935 120.435 122.282 120.683 122.107 121.658L121.897 122.85ZM40.7432 109.588C40.7445 109.21 40.5957 108.847 40.3294 108.579C40.0631 108.311 39.7012 108.16 39.3232 108.158L38.8883 108.157C38.7011 108.156 38.5157 108.192 38.3425 108.263C38.1694 108.334 38.0119 108.439 37.8791 108.571C37.7463 108.702 37.6408 108.859 37.5686 109.032C37.4964 109.204 37.4589 109.39 37.4582 109.577L37.4218 120.032C37.4205 120.41 37.5693 120.773 37.8356 121.041C38.1019 121.309 38.4638 121.46 38.8418 121.462L39.2767 121.463C39.4639 121.464 39.6493 121.428 39.8225 121.357C39.9956 121.286 40.1531 121.181 40.2859 121.049C40.4187 120.918 40.5242 120.761 40.5964 120.588C40.6686 120.416 40.7061 120.23 40.7068 120.043L40.7432 109.588Z" fill="#31A0CE"/>
<path d="M42.9599 49.4924C45.6749 35.7124 53.4774 26.7149 66.3674 22.4999C69.8624 21.3549 73.6349 20.9149 77.6849 21.1799C90.7574 22.0349 101.407 29.7374 106.725 41.8124C106.825 42.0474 107.002 42.1949 107.257 42.2549C108.337 42.5099 109.612 42.6374 110.52 42.8774C119.285 45.2174 124.89 50.7324 127.335 59.4224C131.325 73.6349 119.79 87.6749 105.375 87.7874C84.1249 87.9474 62.8749 87.9449 41.6249 87.7799C16.8524 87.5774 15.1649 52.9349 39.6974 49.9199C40.4774 49.8224 41.5724 49.9949 42.5099 49.9049C42.7649 49.8799 42.9149 49.7424 42.9599 49.4924ZM94.2749 55.3574C83.4599 45.0374 66.6974 45.0374 55.8749 55.3124C55.4949 55.6724 55.4949 56.0299 55.8749 56.3849L57.5474 57.9674C57.6955 58.1074 57.8919 58.1853 58.0966 58.1853C58.3014 58.1853 58.4992 58.1074 58.6499 57.9674C67.8899 49.3124 82.3724 49.2749 91.4999 58.0574C91.6432 58.1945 91.8335 58.271 92.0308 58.271C92.2281 58.271 92.4169 58.1945 92.5574 58.0574L94.2824 56.3624C94.3495 56.2969 94.4027 56.2184 94.4388 56.1318C94.4749 56.0452 94.4931 55.9522 94.4924 55.8583C94.4917 55.7645 94.4721 55.6718 94.4347 55.5857C94.3974 55.4996 94.343 55.422 94.2749 55.3574ZM64.1999 63.4574C70.2974 57.9899 79.9049 57.8099 85.9649 63.4799C86.3299 63.8249 86.6899 63.8199 87.0449 63.4649L88.7624 61.7549C89.1124 61.4099 89.1024 61.0724 88.7324 60.7424C80.6399 53.5799 69.6824 53.5874 61.3949 60.7049C60.9649 61.0699 60.9499 61.4524 61.3499 61.8524L62.9324 63.4274C63.3424 63.8324 63.7649 63.8424 64.1999 63.4574ZM69.9899 69.2099C73.0949 66.7499 77.3549 66.9449 80.2049 69.3149C80.5749 69.6199 80.9274 69.5999 81.2624 69.2549L83.0099 67.4549C83.0731 67.3905 83.1219 67.3133 83.1531 67.2286C83.1843 67.1439 83.1971 67.0535 83.1907 66.9635C83.1843 66.8734 83.1589 66.7858 83.1161 66.7063C83.0733 66.6268 83.0141 66.5573 82.9424 66.5024C77.7674 62.5924 72.5649 62.5549 67.3349 66.3899C66.7799 66.7999 66.7499 67.2474 67.2449 67.7324L68.6774 69.1424C69.0924 69.5524 69.5299 69.5749 69.9899 69.2099ZM78.3449 75.3899C78.3449 74.5187 77.9988 73.6832 77.3828 73.0671C76.7667 72.451 75.9312 72.1049 75.0599 72.1049C74.1887 72.1049 73.3531 72.451 72.7371 73.0671C72.121 73.6832 71.7749 74.5187 71.7749 75.3899C71.7749 76.2612 72.121 77.0967 72.7371 77.7128C73.3531 78.3288 74.1887 78.6749 75.0599 78.6749C75.9312 78.6749 76.7667 78.3288 77.3828 77.7128C77.9988 77.0967 78.3449 76.2612 78.3449 75.3899Z" fill="white"/>
<path d="M55.8751 55.3125C66.6976 45.0375 83.4601 45.0374 94.2751 55.3574C94.3432 55.422 94.3975 55.4997 94.4349 55.5857C94.4723 55.6718 94.4919 55.7645 94.4926 55.8584C94.4933 55.9522 94.4751 56.0452 94.439 56.1318C94.4029 56.2184 94.3497 56.2969 94.2826 56.3625L92.5576 58.0575C92.417 58.1945 92.2282 58.271 92.0309 58.271C91.8337 58.271 91.6434 58.1945 91.5001 58.0575C82.3726 49.275 67.8901 49.3125 58.6501 57.9675C58.4994 58.1074 58.3016 58.1853 58.0968 58.1853C57.8921 58.1853 57.6957 58.1074 57.5476 57.9675L55.8751 56.385C55.4951 56.03 55.4951 55.6725 55.8751 55.3125Z" fill="#31A0CE"/>
<path d="M85.9649 63.4799C79.9049 57.8099 70.2974 57.9899 64.1999 63.4574C63.7649 63.8424 63.3424 63.8324 62.9324 63.4274L61.3499 61.8524C60.9499 61.4524 60.9649 61.0699 61.3949 60.7049C69.6824 53.5874 80.6399 53.5799 88.7324 60.7424C89.1024 61.0724 89.1124 61.4099 88.7624 61.7549L87.0449 63.4649C86.6899 63.8199 86.3299 63.8249 85.9649 63.4799Z" fill="#31A0CE"/>
<path d="M80.2051 69.3149C77.3551 66.9449 73.0951 66.7499 69.9901 69.2099C69.5301 69.5749 69.0926 69.5524 68.6776 69.1424L67.2451 67.7324C66.7501 67.2474 66.7801 66.7999 67.3351 66.3899C72.5651 62.5549 77.7676 62.5924 82.9426 66.5024C83.0142 66.5573 83.0734 66.6268 83.1162 66.7063C83.159 66.7857 83.1844 66.8734 83.1908 66.9634C83.1972 67.0535 83.1844 67.1439 83.1532 67.2286C83.1221 67.3133 83.0733 67.3905 83.0101 67.4549L81.2626 69.2549C80.9276 69.5999 80.5751 69.6199 80.2051 69.3149Z" fill="#31A0CE"/>
<path d="M75.0599 78.675C76.8742 78.675 78.3449 77.2042 78.3449 75.39C78.3449 73.5757 76.8742 72.105 75.0599 72.105C73.2457 72.105 71.7749 73.5757 71.7749 75.39C71.7749 77.2042 73.2457 78.675 75.0599 78.675Z" fill="#31A0CE"/>
<path d="M39.0975 105.15C40.3194 105.15 41.31 104.16 41.31 102.938C41.31 101.716 40.3194 100.725 39.0975 100.725C37.8756 100.725 36.885 101.716 36.885 102.938C36.885 104.16 37.8756 105.15 39.0975 105.15Z" fill="white"/>
<path d="M95.7374 105.143C96.9593 105.143 97.9499 104.152 97.9499 102.93C97.9499 101.708 96.9593 100.718 95.7374 100.718C94.5155 100.718 93.5249 101.708 93.5249 102.93C93.5249 104.152 94.5155 105.143 95.7374 105.143Z" fill="white"/>
<path d="M104.648 110.685L104.633 119.963C104.633 121.063 104.08 121.588 102.975 121.538L102.54 121.523C102.191 121.507 101.862 121.357 101.621 121.104C101.381 120.851 101.248 120.514 101.25 120.165L101.273 110.828C101.273 110.588 101.17 110.408 100.965 110.288C100.735 110.153 100.49 110.073 100.23 110.048C99.8901 110.018 99.6951 109.835 99.6451 109.5C99.5301 108.755 99.8376 108.263 100.568 108.023C100.795 107.949 100.989 107.798 101.116 107.595C101.244 107.393 101.296 107.151 101.265 106.913C100.898 104.108 102.068 101.415 105 100.725C105.885 100.523 107.46 100.56 107.775 101.655C108.225 103.2 106.373 103.343 105.398 103.725C105.276 103.774 105.167 103.85 105.079 103.948C104.99 104.045 104.925 104.161 104.888 104.288C104.588 105.368 104.533 106.463 104.723 107.573C104.763 107.828 104.913 107.963 105.173 107.978L107.063 108.098C107.227 108.109 107.383 108.18 107.499 108.299C107.615 108.418 107.684 108.576 107.693 108.743L107.715 109.11C107.745 109.69 107.47 110 106.89 110.04L105.128 110.175C104.998 110.183 104.875 110.24 104.786 110.335C104.697 110.43 104.647 110.555 104.648 110.685Z" fill="white"/>
<path d="M90.2502 101.078L89.9652 101.077C89.1161 101.076 88.4265 101.763 88.4251 102.612L88.3948 119.937C88.3933 120.786 89.0805 121.476 89.9296 121.477L90.2146 121.478C91.0638 121.479 91.7533 120.792 91.7548 119.943L91.785 102.618C91.7865 101.769 91.0994 101.079 90.2502 101.078Z" fill="white"/>
<path d="M55.4474 110.46C57.9374 107.205 62.1974 106.695 65.3324 109.208C68.3474 111.63 67.8224 115.86 67.6724 120.255C67.6627 120.586 67.5246 120.901 67.2869 121.133C67.0493 121.365 66.7305 121.496 66.3974 121.5H65.9999C64.8999 121.515 64.3474 120.97 64.3424 119.865C64.3274 116.828 65.4749 109.905 60.1949 110.445C55.7624 110.895 56.8199 116.91 56.7899 119.888C56.7749 121.028 56.1974 121.573 55.0574 121.523L54.7349 121.515C54.3899 121.5 54.0639 121.352 53.8239 121.102C53.584 120.853 53.4483 120.52 53.4449 120.173L53.3549 113.34C53.3451 112.607 53.0492 111.906 52.5304 111.389C52.0117 110.871 51.3115 110.578 50.5799 110.573L49.3949 110.565C48.935 110.561 48.4787 110.648 48.0522 110.82C47.6258 110.992 47.2375 111.246 46.9094 111.567C46.5814 111.889 46.3201 112.272 46.1405 112.695C45.9608 113.117 45.8663 113.571 45.8624 114.03L45.7949 120.18C45.7939 120.356 45.7582 120.53 45.6897 120.692C45.6213 120.854 45.5214 121.001 45.396 121.125C45.2705 121.248 45.1219 121.345 44.9587 121.411C44.7955 121.477 44.6209 121.51 44.4449 121.508H44.1149C43.0049 121.498 42.4474 120.938 42.4424 119.828C42.4124 114.983 41.8874 109.973 46.9724 108.135C50.0124 107.03 52.6649 107.808 54.9299 110.468C55.1049 110.678 55.2774 110.675 55.4474 110.46Z" fill="white"/>
<path d="M72.8249 120.585L72.8474 127.132C72.8487 127.316 72.8125 127.497 72.741 127.666C72.6695 127.834 72.5643 127.987 72.4317 128.114C72.2991 128.241 72.1419 128.34 71.9697 128.404C71.7975 128.469 71.6138 128.498 71.4299 128.49L71.1074 128.475C70.0224 128.43 69.4874 127.867 69.5024 126.787C69.5474 123.087 69.5449 119.447 69.4949 115.867C69.2999 102.555 91.4999 107.145 85.8149 117.81C83.3924 122.362 77.1824 122.865 73.1249 120.412C73.0936 120.395 73.0583 120.386 73.0225 120.386C72.9867 120.386 72.9518 120.395 72.9213 120.413C72.8907 120.431 72.8657 120.456 72.8488 120.486C72.8319 120.516 72.8236 120.55 72.8249 120.585ZM83.2839 114.575C83.2418 113.426 82.6542 112.344 81.6503 111.567C80.6465 110.79 79.3086 110.382 77.9311 110.433C76.5536 110.483 75.2492 110.988 74.3049 111.836C73.3607 112.684 72.8538 113.806 72.896 114.955C72.9381 116.104 73.5257 117.186 74.5295 117.963C75.5334 118.74 76.8712 119.148 78.2488 119.097C79.6263 119.046 80.9307 118.542 81.8749 117.694C82.8192 116.845 83.326 115.723 83.2839 114.575Z" fill="white"/>
<path d="M27.4425 117.87C29.2725 116.07 27.6375 114.082 28.2975 112.02C29.1025 109.51 30.9175 108.117 33.7425 107.842C34.6275 107.752 35.1475 108.087 35.3025 108.847C35.3536 109.095 35.3279 109.352 35.2288 109.585C35.1296 109.818 34.9618 110.016 34.7475 110.152C32.445 111.622 31.3125 111.795 31.7325 114.975C32.2475 118.92 30.49 121.205 26.46 121.83C26.1107 121.885 25.7529 121.829 25.4368 121.67C25.1208 121.511 24.8623 121.258 24.6975 120.945C23.9025 119.46 26.655 118.657 27.4425 117.87Z" fill="white"/>
<path d="M95.7867 108.038L95.6967 108.037C94.802 108.036 94.0754 108.76 94.0738 109.655L94.056 119.885C94.0544 120.779 94.7784 121.506 95.6731 121.507L95.7631 121.508C96.6578 121.509 97.3844 120.785 97.386 119.89L97.4038 109.66C97.4054 108.766 96.6814 108.039 95.7867 108.038Z" fill="white"/>
<path d="M121.897 122.85L122.107 121.658C122.282 120.683 121.935 120.435 121.065 120.915C116.827 123.248 111.112 121.035 110.182 116.258C109.872 114.673 109.82 112.44 110.025 109.56C110.105 108.42 110.712 107.913 111.847 108.038L112.132 108.068C112.47 108.107 112.781 108.269 113.005 108.524C113.23 108.779 113.352 109.108 113.347 109.448C113.332 111.743 112.882 115.493 114.15 117.285C115.665 119.445 119.512 119.61 121.102 117.473C122.34 115.808 121.995 111.998 122.145 109.725C122.21 108.685 122.765 108.143 123.81 108.098L124.125 108.09C124.274 108.083 124.422 108.106 124.561 108.158C124.701 108.21 124.828 108.289 124.936 108.391C125.044 108.494 125.13 108.617 125.189 108.753C125.248 108.889 125.279 109.036 125.28 109.185C125.305 113.15 125.3 117.138 125.265 121.148C125.19 128.88 117.772 130.875 112.027 126.81C111.207 126.23 111.032 125.495 111.502 124.605L111.645 124.328C112.085 123.493 112.69 123.35 113.46 123.9C114.502 124.643 115.072 125.43 116.287 125.768C118.252 126.313 119.832 125.93 121.027 124.62C121.478 124.125 121.78 123.511 121.897 122.85Z" fill="white"/>
<path d="M39.3231 108.158L38.8881 108.157C38.1011 108.154 37.4609 108.79 37.4582 109.577L37.4217 120.032C37.4189 120.819 38.0547 121.459 38.8417 121.462L39.2767 121.463C40.0637 121.466 40.7039 120.83 40.7066 120.043L40.7431 109.588C40.7459 108.801 40.1101 108.161 39.3231 108.158Z" fill="white"/>
<path d="M78.2488 119.097C81.1173 118.992 83.3717 116.967 83.2839 114.574C83.1962 112.182 80.7996 110.328 77.9311 110.433C75.0625 110.538 72.8082 112.563 72.8959 114.955C72.9836 117.348 75.3802 119.202 78.2488 119.097Z" fill="#31A0CE"/>
</g>
<defs>
<clipPath id="clip0_65_5">
<rect width="150" height="150" fill="white"/>
</clipPath>
</defs>
</svg>
