<svg width="1600" height="800" viewBox="0 0 1600 800" fill="none" xmlns="http://www.w3.org/2000/svg">
<g clip-path="url(#clip0_56_2)">
<path d="M1600 0H0V800H1600V0Z" fill="#36DEFF"/>
<path d="M486 705.8C376.7 684 262.6 673.6 150.7 686.4C99.5 692.1 49 703 0 719.8V800H843.8C727.9 766.8 613 731.9 496.2 707.8C492.8 707.1 489.4 706.5 486 705.8Z" fill="#B7FFBF"/>
<path d="M1600 0H0V719.8C49 703 99.5 692 150.7 686.3C262.6 673.6 376.7 683.9 486 705.7C489.4 706.4 492.8 707.1 496.2 707.7C613 731.7 727.9 766.7 843.8 799.9H1600V0Z" fill="#A0F3A8"/>
<path d="M478.4 581C481.6 581.8 484.8 582.7 487.9 583.5C684.1 636 876.6 717 1081.4 760.1C1255.6 796.7 1430.9 789.3 1600 749.9V0H0V574.9C52.3 557.3 106.5 547.2 161.1 544C268.4 537.4 375.7 554.2 478.4 581Z" fill="#8CEA94"/>
<path d="M0 0V429.4C55.6 411 113.5 402.1 171.4 401.7C274.2 400.9 374.6 424.4 470.7 456.2C473.7 457.2 476.6 458.2 479.6 459.2C663.2 521.2 845.3 605.3 1042 651.3C1228.7 695 1418.3 685.7 1599.9 638.7V0H0Z" fill="#78E180"/>
<path d="M181.8 259.4C280 265.4 373.7 294.6 463.1 331.5C465.9 332.6 468.6 333.8 471.4 334.9C642.4 406.5 814.1 493.4 1002.7 542.6C1201.5 594.4 1406.1 583.4 1600 527.8V0H0V283.2C59 263.6 120.6 255.7 181.8 259.4Z" fill="#64D86C"/>
<path d="M1600 0H0V136.3C62.3 115.4 127.7 108.8 192.2 117.1C285.8 129.2 372.7 164.8 455.5 206.7C458.1 208 460.6 209.3 463.2 210.6C621.6 291.7 782.9 381.5 963.5 433.8C1174 494.8 1394.3 482.8 1600.1 417.2V0H1600Z" fill="#50CF58"/>
<path d="M454.9 86.3C600.7 177 751.6 269.3 924.1 325C1132.7 392.4 1355.4 385.8 1562 319.7C1574.8 315.6 1587.4 311.3 1600.1 306.8V0H288.1C344.1 21.3 396.8 50.6 447.8 82C450.2 83.4 452.5 84.9 454.9 86.3Z" fill="#3CC644"/>
<path d="M1600 0H498C616.1 85.8 741.5 164.5 884.8 216.2C1076.6 285.4 1284.8 290.9 1479.8 237.3C1520.6 226.1 1560.9 212.1 1600.1 195.6V0H1600Z" fill="#28BD30"/>
<path d="M1397.5 154.8C1444.7 144.2 1491.1 129.5 1536.1 111C1557.8 102.1 1579.1 92.2 1600 81.5V0H643.4C706.3 41.7 773.1 78.2 845.5 107.4C1020.4 178.1 1214.2 196.1 1397.5 154.8Z" fill="#14B41C"/>
<path d="M1315.3 73.4C1390.6 60.8 1464.2 36.3 1532.1 1H809.1C966.8 72 1144.7 102 1315.3 73.4Z" fill="#00AB08"/>
</g>
<defs>
<clipPath id="clip0_56_2">
<rect width="1600" height="800" fill="white"/>
</clipPath>
</defs>
</svg>
